<svg xmlns="http://www.w3.org/2000/svg" fill-rule="evenodd" height="1467" image-rendering="optimizeQuality" shape-rendering="geometricPrecision" viewBox="-5.3 -0.02 8666.25 5080.49" width="2500" xmlns:v="https://vecta.io/nano"><path d="M5201.05 641.04c-13.53 3.96-17.03 10.03-30.44 21.5-10.8 9.23-19.9 15.78-30.4 24.8l-59.13 51.15c-104.65 88.04-246.64 225.2-349.23 321.27-159.15 149.02-302.58 292.53-455.26 440.74l-902.44 884.6-691.34 645.32c-95.12 85.08-155.04 162.58-284.55 167.06-213.73 7.38-495.66-174.55-639.84-257.27-126-72.28-460.62-269.07-621.94-274.53l118.2 162.36c84.5 128.95 226.6 409.82 294.84 546.5 234.45 469.54 550.96 961.22 953.8 1288.28 103 83.62 196.33 153.92 327.16 233.08 57.4 34.72 115.94 63.6 180.12 99.93 22.25 12.6 176.55 84.65 195.57 84.6-42.26-42.35-85.73-94.1-120.07-134.47-153.36-180.35-494.52-531.02-597-710-86.04-150.27-105.8-242.3-10.2-393.13 109.3-172.42 364.18-385.78 524.07-522.54 389.1-332.8 740.02-634.22 1147.14-950.2 192.9-149.7 393.46-302.43 600.9-450.46 203.5-145.2 408.06-285.1 620.5-425.53l320.8-204.14c29.76-17.07 321.94-191.02 326.6-196.85l285.9-157.72c96.02-54.24 189.26-99.52 290.94-154.28 298.37-160.67 890.92-422.55 1230.48-542.34l330.4-114.98 337.9-105.84C8467.22 3.9 8093.88.03 8025.1.02c-276.82-.04-446.66 7.68-710.93 28.56-202.26 15.98-578.64 57.5-762.57 101.97-33.1 8-72.3 11.42-105.65 20.2-63.77 16.8-136.77 28.36-202.08 44.62-134.67 33.53-256.94 71.52-383.5 109.26-130.28 38.84-248.1 84.88-364.66 132.83-68.86 28.33-276.96 167.45-294.64 203.6zm2703.87 668.67l245.7-125.47c85.23-40.58 173.38-87.23 253.65-126.46 162.87-79.6 256.68-337.47 254.3-502.8-28.76 1.2-145.77 56.67-177.53 68.3-21.84 8-42 14.87-62.46 23.57-145.1 61.65-338.8 134.55-476.35 199.46-39.94 18.85-78.54 34.44-118.96 51.78-31.73 13.6-101.7 41.06-114.73 57.25-43.66-2.22-932.65 438.32-1043.46 495.62l-507.8 263.73c-17.96 10-480.25 254.66-498.67 278.22-30.44 5.08-347.32 193.25-397.9 221.8-627.03 353.8-1321.46 798.9-1922.06 1206.24-166.9 113.2-380.1 261.73-547.86 388.13l-134.66 100.52c-15.48 11.8-33.74 19.62-42.66 37.33 59.88 51.54 456.55 214.98 551.18 249.1 531.13 191.42 1028.25 324.8 1587.07 420.7l354.64 54.24 51.83 4.57 128.76 16.04 188.8 17.5c121.2 12.16 261.93 20.44 386.52 22.64 154.9 2.72 240.23 10.63 367.22-43 98.44-41.57 178.56-93.28 256.8-153.25 291.46-223.35 550.76-572.68 757.62-888.83 216.5-330.86 411.48-700.53 579.56-1066.77 85.6-186.53 165.92-381.15 241.55-579.4 38.33-100.5 71.57-197.54 106.2-304.17 19.17-59.03 88.92-274.54 94.23-322.7-79.5 10.86-1469.62 760.88-1601.9 831.9l-525.22 291.16c-169.14 91.87-348.06 200.44-516.36 293.98-341.95 190.05-686.3 401.75-1027.78 599.46-58.55 33.9-493.37 288.1-509 305.96 29.23-4.7 1407.8-596.72 1441.2-610.5l1440.77-608.7c-7.78 31.3-91.56 187.7-112.7 233.68-35.24 76.6-77.73 163.78-116.24 239.96-218.27 431.8-455.16 950.26-931.72 1141.65l-28.63 17.2c-25.54.58-95.3 28.94-126.08 37.4-46.32 12.72-91.1 21.55-137.78 31.1-219.65 44.98-551.7 21.53-780.6-14.28-261.02-40.84-443.8-86.66-696.8-147.82-60.4-14.6-496.94-137.23-522.16-153.9 14.22-24.8 263.88-184.77 285.73-199.95 483.07-335.77 1285.47-829.17 1807.3-1126.07l157.06-88.92c41.98-24.06 118.82-64.17 152.73-88.8l244.16-133.92 245.33-135.1c164.4-93.8 330.97-172.45 492.78-263.6 23.8-13.4 947.8-498.95 1005.34-515.74zM1623.5 3844.2c-9.6-20.4-176.45-197.43-209.6-234.44L788 2909.12l-403.8-482.34C331.8 2363.2 44.24 2002.25.3 1928.65c-5.6 14.15 66.78 310.04 77.47 348.92l45.8 174.85c163.4 594.9 326.7 820.03 889.36 1107.54 69.3 35.4 573.16 279.12 610.57 284.24z" fill="#e50007"/></svg>